# xmcd
#
# Track frame offsets:
#	150
#	36672
#	58665
#	74727
#	130450
#	150357
#	211792
#	242087
#	261435
#	281340
#	299495
#	319475
#
# Disc length: 4422 seconds
#
# Revision: 0
# Processed by: cddbd v1.5PL3 Copyright (c) Steve Scherf et al.
# Submitted via: dBpowerAMP V4.0
#
DISCID=c611440c
DTITLE=Steve Ray Vaughan - Hound Dog man
DYEAR=1900
DGENRE=Blues
TTITLE0=Ain't Gonna Give On Love
TTITLE1=Pride And Joy
TTITLE2=Love Struck Baby
TTITLE3=Tin Pan Alley
TTITLE4=Looking At Little Sister
TTITLE5=VooDoo Chile
TTITLE6=Cold Shot
TTITLE7=Couldn't Stand The Weather
TTITLE8=You Have To Know
TTITLE9=Hound Dog Man
TTITLE10=Satisfy Suzie
TTITLE11=Too Sorry
EXTD=bootleg, live
EXTT0=
EXTT1=
EXTT2=
EXTT3=
EXTT4=
EXTT5=
EXTT6=
EXTT7=
EXTT8=
EXTT9=
EXTT10=
EXTT11=
PLAYORDER=
